#!OML:ASF I:\Actors\actors\Patient Classification 2\Patient 1\Session 1\actor1.ASF
:FULLY-SPECIFIED
:DEGREES
597
root -0.287174 18.8156 5.27224 7.41228 5.10467 -2.49632
lowerback 20.1488 0.654597 -0.271418
upperback 1.20134 0.842326 0.364832
thorax -10.0083 0.421513 0.316289
lowerneck -11.1003 -2.56078 -3.24963
upperneck 23.1057 -3.82648 4.00326
head 9.22056 -1.63239 1.49391
rclavicle -3.8763e-015 -9.54166e-015
rhumerus -33.4677 19.6066 -73.1712
rradius 130.959
rwrist -3.35285
rhand 18.3169 -51.3433
rfingers 7.12502
rthumb 42.964 -75.602
lclavicle -3.8763e-015 -9.54166e-015
lhumerus -36.6569 -28.4128 81.9225
lradius 124.107
lwrist 8.03986
lhand -8.02866 -25.0994
lfingers 7.12502
lthumb 17.8813 4.09854
rfemur 0.0498382 2.49569 15.2091
rtibia 9.54166e-015
rfoot -19.1495 -17.0012
rtoes -10.8621
lfemur -17.9049 -3.44268 -12.2606
ltibia 26.6751
lfoot -17.8867 7.54322
ltoes -55.313
598
root -0.312821 18.805 5.33593 6.17077 5.34194 -2.54535
lowerback 19.8525 0.581573 -0.280272
upperback 1.09647 0.76165 0.518119
thorax -9.96233 0.388369 0.513921
lowerneck -11.4039 -2.6437 -3.35572
upperneck 26.5059 -3.97307 3.78405
head 10.501 -1.70316 1.43528
rclavicle 1.93815e-015 -8.74653e-015
rhumerus -34.9459 19.0424 -73.2911
rradius 129.496
rwrist -3.28737
rhand 18.5794 -51.9438
rfingers 7.12502
rthumb 43.2095 -76.1153
lclavicle 1.93815e-015 -8.74653e-015
lhumerus -37.9331 -27.6726 82.2601
lradius 122.6
lwrist 7.91316
lhand -8.22506 -25.1235
lfingers 7.12502
lthumb 17.6923 4.09157
rfemur 1.75873 2.37435 15.5014
rtibia 0
rfoot -19.636 -16.6507
rtoes -10.2669
lfemur -16.2098 -3.50329 -12.1677
ltibia 26.4495
lfoot -18.0426 7.11745
ltoes -55.3448
599
root -0.323444 18.7932 5.38067 5.20169 5.23981 -2.55064
lowerback 19.4434 0.58312 -0.234424
upperback 0.94034 0.783935 0.606742
thorax -9.90948 0.39963 0.580926
lowerneck -11.2333 -2.87389 -3.42075
upperneck 29.34 -4.3406 3.61148
head 11.5566 -1.87766 1.35822
rclavicle 2.66371e-014 -8.94531e-015
rhumerus -36.4597 18.4488 -73.3883
rradius 128.143
rwrist -2.70131
rhand 18.6394 -52.111
rfingers 7.12502
rthumb 43.2655 -76.2625
lclavicle 2.66371e-014 -8.94531e-015
lhumerus -39.1346 -26.8474 82.5318
lradius 121.139
lwrist 7.67919
lhand -8.30004 -25.107
lfingers 7.12502
lthumb 17.6201 4.11456
rfemur 2.99008 2.55281 15.6278
rtibia -1.59028e-015
rfoot -19.9156 -16.5203
rtoes -10.0468
lfemur -14.8357 -3.51382 -12.1828
ltibia 26.2476
lfoot -18.2366 7.0045
ltoes -55.3763
600
root -0.326941 18.7808 5.4143 4.37135 4.97053 -2.50322
lowerback 19.0227 0.627941 -0.190262
upperback 0.774271 0.857851 0.652219
thorax -9.86033 0.434275 0.587811
lowerneck -10.6634 -2.96869 -3.42556
upperneck 31.6505 -4.54622 3.51909
head 12.371 -1.97113 1.32171
rclavicle -2.06736e-014 4.17448e-015
rhumerus -38.0579 17.8503 -73.4657
rradius 126.938
rwrist -1.93084
rhand 14.2449 -48.3643
rfingers 7.12502
rthumb 39.1404 -73.844
lclavicle -2.06736e-014 4.17448e-015
lhumerus -40.3506 -25.9891 82.7975
lradius 119.794
lwrist 7.40901
lhand -8.26821 -25.0142
lfingers 7.12502
lthumb 17.6507 4.20459
rfemur 3.97987 2.87967 15.6464
rtibia -3.18055e-015
rfoot -20.0632 -16.5409
rtoes -10.4242
lfemur -13.6236 -3.44843 -12.2924
ltibia 26.0564
lfoot -18.4071 7.04541
ltoes -55.4875
601
root -0.331378 18.7675 5.44187 3.5438 4.78581 -2.48924
lowerback 18.6825 0.575155 -0.149692
upperback 0.634795 0.800563 0.684224
thorax -9.82383 0.406507 0.61712
lowerneck -9.7442 -2.9977 -3.18493
upperneck 33.4296 -4.66826 3.30916
head 12.9132 -2.02111 1.20874
rclavicle -1.2424e-016 -1.82882e-014
rhumerus -39.7006 17.2881 -73.7268
rradius 125.898
rwrist -1.3419
rhand 13.8108 -48.2363
rfingers 7.12502
rthumb 38.7311 -73.8328
lclavicle -1.2424e-016 -1.82882e-014
lhumerus -41.6761 -24.9729 82.9159
lradius 118.667
lwrist 7.19645
lhand -8.19636 -24.834
lfingers 7.12502
lthumb 17.7199 4.37859
rfemur 4.9618 3.12387 15.7102
rtibia -1.59028e-014
rfoot -20.2052 -16.5373
rtoes -10.9029
lfemur -12.4832 -3.3658 -12.356
ltibia 25.9091
lfoot -18.525 7.03062
ltoes -55.6107
602
root -0.33806 18.7537 5.46409 2.70676 4.64348 -2.49911
lowerback 18.3915 0.446871 -0.18416
upperback 0.53599 0.627723 0.721085
thorax -9.76866 0.327336 0.724319
lowerneck -8.40032 -2.94985 -2.68876
upperneck 34.7244 -4.66372 2.92717
head 13.1562 -2.01266 1.0016
rclavicle 4.77083e-015 -1.5704e-014
rhumerus -41.3602 16.8704 -74.0965
rradius 125.004
rwrist -0.993278
rhand 16.8261 -51.4645
rfingers 7.12502
rthumb 41.5677 -76.1978
lclavicle 4.77083e-015 -1.5704e-014
lhumerus -43.149 -23.761 82.9006
lradius 117.745
lwrist 7.00514
lhand -8.15962 -24.7171
lfingers 7.12502
lthumb 17.7553 4.49226
rfemur 5.94564 3.32618 15.8089
rtibia -1.11319e-014
rfoot -20.3226 -16.4903
rtoes -11.2189
lfemur -11.3761 -3.32828 -12.3826
ltibia 25.7968
lfoot -18.6736 7.00056
ltoes -55.6395
603
root -0.345252 18.7392 5.47869 1.87359 4.47843 -2.49818
lowerback 18.217 0.362584 -0.275019
upperback 0.514021 0.508423 0.832462
thorax -9.69526 0.277808 0.929259
lowerneck -7.04426 -2.90031 -2.48882
upperneck 35.8374 -4.62839 2.71549
head 13.3399 -2.00609 0.914818
rclavicle 1.30204e-014 -7.95139e-015
rhumerus -42.9025 16.4818 -74.189
rradius 124.161
rwrist -0.844397
rhand 16.2326 -51.2411
rfingers 7.12502
rthumb 41.0106 -76.1541
lclavicle 1.30204e-014 -7.95139e-015
lhumerus -44.5928 -22.516 83.0322
lradius 116.943
lwrist 6.89988
lhand -8.2284 -24.7861
lfingers 7.12502
lthumb 17.6891 4.42931
rfemur 6.90146 3.54868 15.8927
rtibia 1.59028e-014
rfoot -20.4405 -16.4064
rtoes -11.2345
lfemur -10.3104 -3.25437 -12.4175
ltibia 25.7259
lfoot -18.8259 6.93435
ltoes -55.6979
604
root -0.3527 18.7236 5.48442 1.05423 4.26116 -2.53662
lowerback 18.1924 0.333632 -0.336035
upperback 0.584753 0.470738 0.970251
thorax -9.60447 0.265811 1.12372
lowerneck -6.03757 -2.85684 -2.56917
upperneck 37.0102 -4.67948 2.9124
head 13.6617 -2.01828 1.02346
rclavicle 1.35919e-014 1.83876e-014
rhumerus -44.4211 15.5896 -74.3039
rradius 123.492
rwrist -0.490338
rhand 15.8499 -50.8814
rfingers 7.12502
rthumb 40.6511 -75.9077
lclavicle 1.35919e-014 1.83876e-014
lhumerus -45.7872 -21.2962 83.1697
lradius 116.215
lwrist 6.86238
lhand -8.36005 -24.9439
lfingers 7.12502
lthumb 17.5624 4.28287
rfemur 7.79653 3.82155 16.0168
rtibia 2.06736e-014
rfoot -20.5733 -16.3182
rtoes -11.1623
lfemur -9.30893 -3.17326 -12.403
ltibia 25.7045
lfoot -18.9748 6.91381
ltoes -55.7734
605
root -0.360915 18.7077 5.48391 0.263233 4.0341 -2.578
lowerback 18.238 0.343319 -0.28654
upperback 0.749292 0.492807 0.971725
thorax -9.44852 0.272991 1.09087
lowerneck -5.1888 -2.89918 -2.32645
upperneck 38.0471 -4.91249 3.09455
head 13.9658 -2.0663 1.04426
rclavicle -1.79652e-014 -3.1408e-014
rhumerus -45.5254 15.1546 -74.1905
rradius 122.664
rwrist -0.420824
rhand 15.3788 -50.8904
rfingers 7.12502
rthumb 40.2081 -76.0533
lclavicle -1.79652e-014 -3.1408e-014
lhumerus -46.6834 -20.2866 83.0365
lradius 115.532
lwrist 6.85503
lhand -8.4361 -25.1124
lfingers 7.12502
lthumb 17.4892 4.12085
rfemur 8.62935 4.09965 16.1514
rtibia -3.33958e-014
rfoot -20.6234 -16.2994
rtoes -11.4419
lfemur -8.38564 -3.09397 -12.3784
ltibia 25.7275
lfoot -19.1332 6.91987
ltoes -55.8362
